# xmcd
#
# Track frame offsets:
#	150
#	19869
#	36029
#	61134
#	81749
#	102553
#	120240
#	144065
#	166577
#	192189
#	211961
#
# Disc length: 3014 seconds
#
# Revision: 0
# Processed by: cddbd v1.5.2PL0 Copyright (c) Steve Scherf et al.
# Submitted via: dBpowerAMP V4.0
#
DISCID=890bc40b
DTITLE=Jive Rockets - Guilty Pleasures
DYEAR=2000
DGENRE=Rock-a-Billy
TTITLE0=Guilty Pleasures
TTITLE1=It Ain't My Fault
TTITLE2=Workin' Bee Blues
TTITLE3=The Prophet
TTITLE4=Sweet Stuff
TTITLE5=That's What My Baby Likes
TTITLE6=VooDoo Charm
TTITLE7=Sara
TTITLE8=Season's Change
TTITLE9=Firefly
TTITLE10=Dreamin'
EXTD=Louisville Swing Band\nThor Steffen
EXTT0=
EXTT1=
EXTT2=
EXTT3=
EXTT4=
EXTT5=
EXTT6=
EXTT7=
EXTT8=
EXTT9=
EXTT10=
PLAYORDER=
